<svg width="1200" height="1600" xmlns="http://www.w3.org/2000/svg">
    <style>
        .title { font: bold 24px sans-serif; }
        .subtitle { font: bold 18px sans-serif; }
        .label { font: 12px sans-serif; }
        .small-label { font: 10px sans-serif; }
        .box { fill: white; stroke: black; stroke-width: 2; }
        .arrow { stroke: #555; stroke-width: 2; marker-end: url(#arrowhead); }
    </style>
    
    <defs>
        <marker id="arrowhead" markerWidth="10" markerHeight="7" refX="0" refY="3.5" orient="auto">
            <polygon points="0 0, 10 3.5, 0 7" />
        </marker>
    </defs>

    <!-- Main Application -->
    <rect x="10" y="10" width="1180" height="1580" fill="#f0f0f0" />
    <text x="20" y="40" class="title">Magpie Learning Platform Architecture</text>

    <!-- Routes -->
    <rect x="20" y="60" width="280" height="700" class="box" fill="#e6f3ff" />
    <text x="30" y="80" class="subtitle">Routes</text>

    <!-- Student Routes -->
    <text x="40" y="110" class="label">Student Routes (/student)</text>
    <text x="50" y="130" class="small-label">- Home (/)</text>
    <text x="50" y="150" class="small-label">- Login (/login)</text>
    <text x="50" y="170" class="small-label">- Register (/register)</text>
    <text x="50" y="190" class="small-label">- My Courses (/my_courses)</text>
    <text x="50" y="210" class="small-label">- Course Details (/course/&lt;course_id&gt;)</text>
    <text x="50" y="230" class="small-label">- Dashboard (/dashboard)</text>
    <text x="50" y="250" class="small-label">- Profile (/profile)</text>
    <text x="50" y="270" class="small-label">- Logout (/logout)</text>
    <text x="50" y="290" class="small-label">- Forgot Password (/forgot_password)</text>
    <text x="50" y="310" class="small-label">- Purchase Course (/purchase_course/&lt;course_id&gt;)</text>
    <text x="50" y="330" class="small-label">- Video Player (/video_player/&lt;course_id&gt;)</text>
    <text x="50" y="350" class="small-label">- Rate Course (/rate_course/&lt;course_id&gt;)</text>

    <!-- Teacher Routes -->
    <text x="40" y="390" class="label">Teacher Routes (/teacher)</text>
    <text x="50" y="410" class="small-label">- Login (/login)</text>
    <text x="50" y="430" class="small-label">- Register (/register)</text>
    <text x="50" y="450" class="small-label">- Profile (/profile)</text>
    <text x="50" y="470" class="small-label">- Dashboard (/dashboard)</text>
    <text x="50" y="490" class="small-label">- Add Course (/add_course)</text>
    <text x="50" y="510" class="small-label">- Edit Course (/edit_course/&lt;course_id&gt;)</text>
    <text x="50" y="530" class="small-label">- View Course (/view_course/&lt;course_id&gt;)</text>
    <text x="50" y="550" class="small-label">- Add Video (/add_video/&lt;course_id&gt;)</text>
    <text x="50" y="570" class="small-label">- Edit Video (/edit_video/&lt;course_id&gt;/&lt;video_id&gt;)</text>
    <text x="50" y="590" class="small-label">- Delete Video (/delete_video/&lt;course_id&gt;/&lt;video_id&gt;)</text>
    <text x="50" y="610" class="small-label">- Update Video Order (/update_video_order/&lt;course_id&gt;)</text>
    <text x="50" y="630" class="small-label">- Public Profile (/public_profile/&lt;teacher_id&gt;)</text>

    <!-- Firebase -->
    <rect x="320" y="60" width="280" height="700" class="box" fill="#fff0e6" />
    <text x="330" y="80" class="subtitle">Firebase</text>

    <!-- Firestore Database -->
    <text x="340" y="110" class="label">Firestore Database</text>
    <text x="350" y="130" class="small-label">- student_details</text>
    <text x="350" y="150" class="small-label">- teacher_details</text>
    <text x="350" y="170" class="small-label">- course_details</text>
    <text x="350" y="190" class="small-label">- users</text>

    <!-- Realtime Database -->
    <text x="340" y="230" class="label">Realtime Database</text>
    <text x="350" y="250" class="small-label">- users</text>

    <!-- External Services -->
    <rect x="620" y="60" width="280" height="700" class="box" fill="#e6ffe6" />
    <text x="630" y="80" class="subtitle">External Services</text>
    <text x="640" y="110" class="label">Google Drive API</text>
    <text x="650" y="130" class="small-label">- Video storage</text>
    <text x="650" y="150" class="small-label">- Thumbnail generation</text>
    <text x="640" y="180" class="label">Email Service</text>
    <text x="650" y="200" class="small-label">- Password reset</text>
    <text x="650" y="220" class="small-label">- Account verification</text>

    <!-- Data Flow -->
    <line x1="300" y1="400" x2="320" y2="400" class="arrow" />
    <line x1="320" y1="420" x2="300" y2="420" class="arrow" />
    <line x1="600" y1="400" x2="620" y2="400" class="arrow" />
    <line x1="620" y1="420" x2="600" y2="420" class="arrow" />

    <!-- Firestore Collections -->
    <rect x="20" y="780" width="1160" height="800" class="box" fill="#fffae6" />
    <text x="30" y="810" class="subtitle">Firestore Collections</text>
    
    <!-- student_details -->
    <rect x="40" y="840" width="260" height="220" class="box" />
    <text x="50" y="860" class="label">student_details</text>
    <text x="60" y="880" class="small-label">- user_id</text>
    <text x="60" y="900" class="small-label">- email_id</text>
    <text x="60" y="920" class="small-label">- name</text>
    <text x="60" y="940" class="small-label">- purchased_courses: []</text>
    <text x="60" y="960" class="small-label">- progress: {</text>
    <text x="70" y="980" class="small-label">course_id: {</text>
    <text x="80" y="1000" class="small-label">overall_progress: float,</text>
    <text x="80" y="1020" class="small-label">videos_completed: {}</text>
    <text x="70" y="1040" class="small-label">}</text>
    <text x="60" y="1060" class="small-label">}</text>

    <!-- teacher_details -->
    <rect x="320" y="840" width="260" height="220" class="box" />
    <text x="330" y="860" class="label">teacher_details</text>
    <text x="340" y="880" class="small-label">- teacher_id</text>
    <text x="340" y="900" class="small-label">- name</text>
    <text x="340" y="920" class="small-label">- email</text>
    <text x="340" y="940" class="small-label">- about</text>
    <text x="340" y="960" class="small-label">- educational_experience</text>
    <text x="340" y="980" class="small-label">- specialization</text>
    <text x="340" y="1000" class="small-label">- teaching_experience</text>
    <text x="340" y="1020" class="small-label">- website</text>
    <text x="340" y="1040" class="small-label">- courses_created: []</text>
    <text x="340" y="1060" class="small-label">- total_students: int</text>

    <!-- course_details -->
    <rect x="600" y="840" width="260" height="360" class="box" />
    <text x="610" y="860" class="label">course_details</text>
    <text x="620" y="880" class="small-label">- course_id</text>
    <text x="620" y="900" class="small-label">- course_name</text>
    <text x="620" y="920" class="small-label">- course_description</text>
    <text x="620" y="940" class="small-label">- course_duration</text>
    <text x="620" y="960" class="small-label">- course_price</text>
    <text x="620" y="980" class="small-label">- course_instructor</text>
    <text x="620" y="1000" class="small-label">- course_instructor_id</text>
    <text x="620" y="1020" class="small-label">- total_enrollments</text>
    <text x="620" y="1040" class="small-label">- total_revenue</text>
    <text x="620" y="1060" class="small-label">- average_rating</text>
    <text x="620" y="1080" class="small-label">- total_ratings</text>
    <text x="620" y="1100" class="small-label">- videos: {</text>
    <text x="630" y="1120" class="small-label">video_id: {</text>
    <text x="640" y="1140" class="small-label">title, description, url,</text>
    <text x="640" y="1160" class="small-label">duration, thumbnail, video_seq</text>
    <text x="630" y="1180" class="small-label">}</text>
    <text x="620" y="1200" class="small-label">}</text>

    <!-- users -->
    <rect x="880" y="840" width="260" height="180" class="box" />
    <text x="890" y="860" class="label">users</text>
    <text x="900" y="880" class="small-label">- user_id</text>
    <text x="900" y="900" class="small-label">- email_id</text>
    <text x="900" y="920" class="small-label">- name</text>
    <text x="900" y="940" class="small-label">- role</text>
    <text x="900" y="960" class="small-label">- courses (for teachers)</text>

    <!-- Realtime Database -->
    <rect x="20" y="1280" width="260" height="180" class="box" />
    <text x="30" y="1300" class="label">Realtime Database - users</text>
    <text x="40" y="1320" class="small-label">- user_id</text>
    <text x="40" y="1340" class="small-label">- username</text>
    <text x="40" y="1360" class="small-label">- email</text>
    <text x="40" y="1380" class="small-label">- password</text>
    <text x="40" y="1400" class="small-label">- role</text>
    <text x="40" y="1420" class="small-label">- first_name</text>
    <text x="40" y="1440" class="small-label">- last_name</text>
</svg>